<svg width="10" height="10" viewBox="0 0 10 10" fill="none" xmlns="http://www.w3.org/2000/svg">
  <mask id="mask0" mask-type="alpha" maskUnits="userSpaceOnUse" x="0" y="0" width="10" height="10">
    <path fill-rule="evenodd" clip-rule="evenodd"
          d="M8.33302 4.79175C8.33302 2.52916 5.8606 0.962521 3.81254 1.997L3.81096 1.9978L3.81096 1.9978C2.30327 2.75132 1.6482 4.67256 2.41327 6.18723C2.46336 6.28639 2.47177 6.40145 2.43664 6.50685L1.90849 8.09128L3.49292 7.56313C3.59832 7.528 3.71338 7.53642 3.81254 7.5865C5.83612 8.60862 8.33882 7.01716 8.33302 4.79284L8.33302 4.79175ZM9.16635 4.79128C9.16601 1.9225 6.0523 -0.0671955 3.43762 1.25277C1.57648 2.18348 0.739707 4.49827 1.59301 6.40249L0.854401 8.61832C0.804493 8.76805 0.843461 8.93312 0.955058 9.04471C1.06665 9.15631 1.23172 9.19528 1.38145 9.14537L3.59717 8.4068C6.15438 9.55519 9.17314 7.56658 9.16635 4.79128Z"
          fill="#061938"/>
  </mask>
  <g mask="url(#mask0)">
    <rect width="10" height="10" fill="#A5ADBA"/>
  </g>
</svg>
