<svg width="10" height="10" viewBox="0 0 10 10" fill="none" xmlns="http://www.w3.org/2000/svg">
  <mask id="mask0" mask-type="alpha" maskUnits="userSpaceOnUse" x="1" y="0" width="8" height="10">
    <path fill-rule="evenodd" clip-rule="evenodd"
          d="M1.61612 0.782865C1.85054 0.548444 2.16848 0.416748 2.5 0.416748H5.83333C5.94384 0.416748 6.04982 0.460647 6.12796 0.538787L8.62796 3.03879C8.7061 3.11693 8.75 3.22291 8.75 3.33341V8.33341C8.75 8.66494 8.6183 8.98288 8.38388 9.2173C8.14946 9.45172 7.83152 9.58341 7.5 9.58341H2.5C2.16848 9.58341 1.85054 9.45172 1.61612 9.2173C1.3817 8.98288 1.25 8.66494 1.25 8.33341V1.66675C1.25 1.33523 1.3817 1.01728 1.61612 0.782865ZM2.5 1.25008C2.38949 1.25008 2.28351 1.29398 2.20537 1.37212C2.12723 1.45026 2.08333 1.55624 2.08333 1.66675V8.33341C2.08333 8.44392 2.12723 8.5499 2.20537 8.62804C2.28351 8.70618 2.38949 8.75008 2.5 8.75008H7.5C7.61051 8.75008 7.71649 8.70618 7.79463 8.62804C7.87277 8.5499 7.91667 8.44392 7.91667 8.33341V3.506L5.66074 1.25008H2.5Z"
          fill="#061938"/>
    <path fill-rule="evenodd" clip-rule="evenodd"
          d="M5.83333 0.416748C6.06345 0.416748 6.25 0.603296 6.25 0.833415V2.91675H8.33333C8.56345 2.91675 8.75 3.1033 8.75 3.33341C8.75 3.56353 8.56345 3.75008 8.33333 3.75008H5.83333C5.60321 3.75008 5.41667 3.56353 5.41667 3.33341V0.833415C5.41667 0.603296 5.60321 0.416748 5.83333 0.416748Z"
          fill="#061938"/>
    <path fill-rule="evenodd" clip-rule="evenodd"
          d="M5 4.58341C5.23012 4.58341 5.41667 4.76996 5.41667 5.00008V7.50008C5.41667 7.7302 5.23012 7.91675 5 7.91675C4.76988 7.91675 4.58333 7.7302 4.58333 7.50008V5.00008C4.58333 4.76996 4.76988 4.58341 5 4.58341Z"
          fill="#061938"/>
    <path fill-rule="evenodd" clip-rule="evenodd"
          d="M3.33333 6.25008C3.33333 6.01996 3.51988 5.83341 3.75 5.83341H6.25C6.48012 5.83341 6.66667 6.01996 6.66667 6.25008C6.66667 6.4802 6.48012 6.66675 6.25 6.66675H3.75C3.51988 6.66675 3.33333 6.4802 3.33333 6.25008Z"
          fill="#061938"/>
  </mask>
  <g mask="url(#mask0)">
    <rect width="10" height="10" fill="#8993A4"/>
  </g>
</svg>
