<svg width="16" height="16" viewBox="0 0 16 16" fill="none" xmlns="http://www.w3.org/2000/svg">
  <mask id="mask0" mask-type="alpha" maskUnits="userSpaceOnUse" x="1" y="0" width="14" height="16">
    <path fill-rule="evenodd" clip-rule="evenodd"
          d="M1.33301 4.00008C1.33301 3.63189 1.63148 3.33341 1.99967 3.33341H13.9997C14.3679 3.33341 14.6663 3.63189 14.6663 4.00008C14.6663 4.36827 14.3679 4.66675 13.9997 4.66675H1.99967C1.63148 4.66675 1.33301 4.36827 1.33301 4.00008Z"
          fill="white"/>
    <path fill-rule="evenodd" clip-rule="evenodd"
          d="M6.66634 2.00008C6.48953 2.00008 6.31996 2.07032 6.19494 2.19534C6.06991 2.32037 5.99967 2.48994 5.99967 2.66675V3.33341H9.99967V2.66675C9.99967 2.48994 9.92944 2.32037 9.80441 2.19534C9.67939 2.07032 9.50982 2.00008 9.33301 2.00008H6.66634ZM11.333 3.33341V2.66675C11.333 2.13631 11.1223 1.62761 10.7472 1.25253C10.3721 0.877462 9.86344 0.666748 9.33301 0.666748H6.66634C6.13591 0.666748 5.6272 0.877462 5.25213 1.25253C4.87706 1.62761 4.66634 2.13631 4.66634 2.66675V3.33341H3.33301C2.96482 3.33341 2.66634 3.63189 2.66634 4.00008V13.3334C2.66634 13.8638 2.87705 14.3726 3.25213 14.7476C3.6272 15.1227 4.13591 15.3334 4.66634 15.3334H11.333C11.8634 15.3334 12.3721 15.1227 12.7472 14.7476C13.1223 14.3726 13.333 13.8638 13.333 13.3334V4.00008C13.333 3.63189 13.0345 3.33341 12.6663 3.33341H11.333ZM3.99967 4.66675V13.3334C3.99967 13.5102 4.06991 13.6798 4.19494 13.8048C4.31996 13.9298 4.48953 14.0001 4.66634 14.0001H11.333C11.5098 14.0001 11.6794 13.9298 11.8044 13.8048C11.9294 13.6798 11.9997 13.5102 11.9997 13.3334V4.66675H3.99967Z"
          fill="white"/>
    <path fill-rule="evenodd" clip-rule="evenodd"
          d="M6.66634 6.66675C7.03453 6.66675 7.33301 6.96522 7.33301 7.33341V11.3334C7.33301 11.7016 7.03453 12.0001 6.66634 12.0001C6.29815 12.0001 5.99967 11.7016 5.99967 11.3334V7.33341C5.99967 6.96522 6.29815 6.66675 6.66634 6.66675Z"
          fill="white"/>
    <path fill-rule="evenodd" clip-rule="evenodd"
          d="M9.33301 6.66675C9.7012 6.66675 9.99967 6.96522 9.99967 7.33341V11.3334C9.99967 11.7016 9.7012 12.0001 9.33301 12.0001C8.96482 12.0001 8.66634 11.7016 8.66634 11.3334V7.33341C8.66634 6.96522 8.96482 6.66675 9.33301 6.66675Z"
          fill="white"/>
  </mask>
  <g mask="url(#mask0)">
    <rect width="16" height="16" fill="white"/>
  </g>
</svg>
