<svg width="16" height="16" viewBox="0 0 16 16" fill="none" xmlns="http://www.w3.org/2000/svg">
  <mask id="mask0" mask-type="alpha" maskUnits="userSpaceOnUse" x="0" y="0" width="16" height="16">
    <path fill-rule="evenodd" clip-rule="evenodd"
          d="M8.00033 2.00008C4.68662 2.00008 2.00033 4.68637 2.00033 8.00008C2.00033 11.3138 4.68662 14.0001 8.00033 14.0001C11.314 14.0001 14.0003 11.3138 14.0003 8.00008C14.0003 4.68637 11.314 2.00008 8.00033 2.00008ZM0.666992 8.00008C0.666992 3.94999 3.95024 0.666748 8.00033 0.666748C12.0504 0.666748 15.3337 3.94999 15.3337 8.00008C15.3337 12.0502 12.0504 15.3334 8.00033 15.3334C3.95024 15.3334 0.666992 12.0502 0.666992 8.00008Z"
          fill="#97A0AF"/>
    <path fill-rule="evenodd" clip-rule="evenodd"
          d="M8.00065 4.66675C8.36884 4.66675 8.66732 4.96522 8.66732 5.33341V10.6667C8.66732 11.0349 8.36884 11.3334 8.00065 11.3334C7.63246 11.3334 7.33398 11.0349 7.33398 10.6667V5.33341C7.33398 4.96522 7.63246 4.66675 8.00065 4.66675Z"
          fill="#97A0AF"/>
    <path fill-rule="evenodd" clip-rule="evenodd"
          d="M4.66699 8.00016C4.66699 7.63197 4.96547 7.3335 5.33366 7.3335H10.667C11.0352 7.3335 11.3337 7.63197 11.3337 8.00016C11.3337 8.36835 11.0352 8.66683 10.667 8.66683H5.33366C4.96547 8.66683 4.66699 8.36835 4.66699 8.00016Z"
          fill="#97A0AF"/>
  </mask>
  <g mask="url(#mask0)">
    <rect width="16" height="16" fill="#0065FF"/>
  </g>
</svg>
